<svg xmlns="http://www.w3.org/2000/svg" xmlns:xlink="http://www.w3.org/1999/xlink" width="200" height="200"><defs><linearGradient id="d" x1=".5" y1="1" x2=".5" gradientUnits="objectBoundingBox"><stop offset="0" stop-color="#ffd34a"/><stop offset="1" stop-color="#f1d143"/></linearGradient><linearGradient id="a" x1="7.238" y1="-89.521" x2="7.238" y2="-90.786" gradientUnits="objectBoundingBox"><stop offset="0" stop-color="#9d7d35"/><stop offset=".717" stop-color="#8b6930"/></linearGradient><linearGradient id="e" x1="-42.811" y1="-104.635" x2="-42.811" y2="-105.9" xlink:href="#a"/><linearGradient id="b" x1=".5" y1=".514" x2=".5" y2="-.486" gradientUnits="objectBoundingBox"><stop offset="0" stop-color="#fff" stop-opacity="0"/><stop offset=".039" stop-color="#fff" stop-opacity=".055"/><stop offset=".248" stop-color="#fff" stop-opacity=".337"/><stop offset=".446" stop-color="#fff" stop-opacity=".573"/><stop offset=".625" stop-color="#fff" stop-opacity=".757"/><stop offset=".783" stop-color="#fff" stop-opacity=".89"/><stop offset=".913" stop-color="#fff" stop-opacity=".973"/><stop offset="1" stop-color="#fff"/></linearGradient><linearGradient id="f" x1=".5" y1=".518" x2=".5" y2="-.482" xlink:href="#b"/><linearGradient id="g" x1="-2.36" y1="-161.61" x2="-1.36" y2="-161.61" xlink:href="#a"/><linearGradient id="h" x1="-38.373" y1="-161.61" x2="-37.373" y2="-161.61" xlink:href="#a"/><linearGradient id="i" x1=".5" y1="1" x2=".5" y2="0" xlink:href="#a"/><clipPath id="c"><path d="M0 0h200v200H0z"/></clipPath></defs><g data-name="Poor" clip-path="url(#c)"><g data-name="Group 40" transform="translate(-264.899 -347.181)" style="isolation:isolate"><circle data-name="Ellipse 4" cx="94.506" cy="94.506" r="94.506" transform="rotate(-80.91 436.223 112.319)" fill="url(#d)"/><path data-name="Path 27" d="M280.68 389.4a35.431 35.431 0 0022.678-10.311 27.1 27.1 0 004.737-6.13 20.578 20.578 0 002.229-5.012c.4-1.274-.161-1.643-1.26-.941-1.039.7-2.525 1.688-4.308 2.88-3.467 2.328-7.858 5.218-12.421 7.845-4.5 2.729-9.21 5.269-12.885 7.323-3.659 2.032-3.278 4.663 1.23 4.346z" transform="translate(23.048 31.335)" fill="url(#a)"/><path data-name="Path 28" d="M353.146 389.4a35.431 35.431 0 01-22.678-10.311 27.108 27.108 0 01-4.737-6.13 20.571 20.571 0 01-2.228-5.012c-.4-1.274.161-1.643 1.259-.941 1.039.7 2.525 1.688 4.308 2.88 3.467 2.328 7.858 5.218 12.421 7.845 4.5 2.729 9.21 5.269 12.885 7.323 3.659 2.032 3.277 4.663-1.23 4.346z" transform="translate(75.031 31.335)" fill="url(#e)"/><path data-name="Path 29" d="M349.011 434.494a18.549 18.549 0 01-4.938 6.242 25.211 25.211 0 01-6.823 4.249 26.249 26.249 0 01-9.3 2.019 25.022 25.022 0 01-4.891-.39 11.442 11.442 0 01-3.327-.867 19.095 19.095 0 00-1.145-.4 11.6 11.6 0 01-3.076-1.5c-.3-.184-.6-.371-.893-.532a12.306 12.306 0 01-2.775-2.1l-.4-.369a17.1 17.1 0 01-3.543-4.285 21.684 21.684 0 01-1.156-2.063v87c21.137 17.151 42.274 18.646 42.274 18.646z" fill="#6fb0df"/><path data-name="Path 30" d="M424.013 436.568a17.093 17.093 0 01-3.543 4.285l-.4.369a12.307 12.307 0 01-2.776 2.1c-.3.161-.592.348-.893.532a11.6 11.6 0 01-3.077 1.5 17.4 17.4 0 00-1.145.4 11.443 11.443 0 01-3.327.867 25.022 25.022 0 01-4.891.39 26.25 26.25 0 01-9.3-2.019 25.216 25.216 0 01-6.825-4.256 18.541 18.541 0 01-4.938-6.242v105.182s21.9-3.111 42.274-20.187v-84.984a21.752 21.752 0 01-1.159 2.063z" fill="#6fb0df"/><path data-name="Path 31" d="M322.517 384.554a18.55 18.55 0 01-4.938 6.242 25.215 25.215 0 01-6.823 4.249 26.247 26.247 0 01-9.3 2.018 25 25 0 01-4.892-.39 11.44 11.44 0 01-3.327-.867 19.095 19.095 0 00-1.145-.4 11.667 11.667 0 01-3.076-1.5c-.3-.185-.6-.371-.893-.532a12.3 12.3 0 01-2.776-2.1l-.4-.371a17.05 17.05 0 01-3.543-4.283 21.707 21.707 0 01-1.156-2.063v87c21.137 17.151 42.274 18.646 42.274 18.646z" transform="translate(26.712 51.39)" fill="url(#b)"/><path data-name="Path 32" d="M357.28 386.628a17.052 17.052 0 01-3.543 4.283l-.4.371a12.3 12.3 0 01-2.775 2.1c-.3.161-.592.348-.893.532a11.67 11.67 0 01-3.076 1.5c-.377.112-.759.254-1.145.4a11.439 11.439 0 01-3.327.867 25.005 25.005 0 01-4.892.39 26.249 26.249 0 01-9.3-2.018 25.215 25.215 0 01-6.829-4.253 18.55 18.55 0 01-4.938-6.242v105.178s21.9-3.11 42.274-20.187v-84.984a21.754 21.754 0 01-1.156 2.063z" transform="translate(66.951 51.39)" fill="url(#f)"/><path data-name="Path 33" d="M358.493 385.919a22.488 22.488 0 01-1.2 2.15 17.085 17.085 0 01-3.543 4.283l-.407.371a12.3 12.3 0 01-2.773 2.1c-.3.161-.592.345-.893.532a11.67 11.67 0 01-3.076 1.5 17.4 17.4 0 00-1.145.4 11.45 11.45 0 01-3.327.867 25.362 25.362 0 01-4.891.39 26.3 26.3 0 01-9.3-2.019 25.263 25.263 0 01-6.823-4.249 18.675 18.675 0 01-5.006-6.384 1.974 1.974 0 011.825-2.729 2.074 2.074 0 01.479.057l6.564 1.646a137.4 137.4 0 005.986 1.243l1.637.212a28.768 28.768 0 005.063.381 25.768 25.768 0 005.18-.246l1.115-.125a10.434 10.434 0 001.514-.278c.5-.11 1.007-.223 1.5-.288a13.421 13.421 0 001.652-.4l1.1-.3c1.194-.273 2.247-.617 3.151-.909l1.359-.422c1.262-.358 2.061-.528 2.061-.528a1.949 1.949 0 011.944.7 1.985 1.985 0 01.254 2.045z" transform="translate(66.72 49.788)" fill="url(#g)"/><path data-name="Path 34" d="M280.211 385.919a22.524 22.524 0 001.2 2.15 17.091 17.091 0 003.543 4.283l.405.371a12.364 12.364 0 002.775 2.1c.3.161.592.345.893.532a11.67 11.67 0 003.076 1.5 17.4 17.4 0 011.145.4 11.436 11.436 0 003.327.867 25.345 25.345 0 004.891.39 26.3 26.3 0 009.3-2.019 25.257 25.257 0 006.823-4.249 18.676 18.676 0 005.006-6.384 1.974 1.974 0 00-1.825-2.729 2.073 2.073 0 00-.479.057l-6.564 1.646c-1.857.435-3.948.863-5.985 1.243l-1.637.212a28.77 28.77 0 01-5.063.381 25.768 25.768 0 01-5.18-.246l-1.115-.125a10.428 10.428 0 01-1.514-.278c-.5-.11-1.007-.223-1.5-.288a13.421 13.421 0 01-1.652-.4l-1.1-.3c-1.194-.273-2.247-.617-3.151-.909l-1.359-.422c-1.261-.358-2.061-.528-2.061-.528a1.949 1.949 0 00-1.944.7 1.984 1.984 0 00-.255 2.045z" transform="translate(26.481 49.788)" fill="url(#h)"/><path data-name="Path 35" d="M427.963 500.477a94.543 94.543 0 01-156.043-35.6 94.518 94.518 0 10182.01-49.182 94.409 94.409 0 01-25.967 84.782z" opacity=".1"/><ellipse data-name="Ellipse 5" cx="16.53" cy="20.741" rx="16.53" ry="20.741" transform="translate(349.423 477.013)" fill="url(#i)"/><path data-name="Path 36" d="M365.954 477.012c-6.554 0-12.164 4.824-14.84 11.759h29.675c-2.674-6.935-8.284-11.759-14.835-11.759z" fill="#fff"/></g></g></svg>