<svg xmlns="http://www.w3.org/2000/svg" xmlns:xlink="http://www.w3.org/1999/xlink" width="200" height="200"><defs><linearGradient id="c" x1=".5" y1="1" x2=".5" gradientUnits="objectBoundingBox"><stop offset="0" stop-color="#ffd34a"/><stop offset="1" stop-color="#f1d143"/></linearGradient><linearGradient id="a" x1=".5" y1="1" x2=".5" gradientUnits="objectBoundingBox"><stop offset="0" stop-color="#9d7d35"/><stop offset=".717" stop-color="#8b6930"/></linearGradient><linearGradient id="d" x1="-51.828" y1="1" x2="-51.828" y2="0" xlink:href="#a"/><clipPath id="b"><path d="M0 0h200v200H0z"/></clipPath></defs><g clip-path="url(#b)"><g data-name="Group 1557" transform="translate(-21.647 -95.346)" style="isolation:isolate"><circle data-name="Ellipse 2" cx="91.927" cy="91.927" r="91.927" transform="translate(29.634 103.492)" fill="url(#c)"/><path data-name="Path 13" d="M183.523 247.506a91.967 91.967 0 01-151.787-34.625 91.94 91.94 0 10177.047-47.84 91.832 91.832 0 01-25.26 82.465z" opacity=".1"/><path data-name="Path 15" d="M167.074 154.3s-59.8 16.943-122.586 0c0 0-1 57.8 61.293 55.811s61.293-55.811 61.293-55.811z" transform="translate(15.781 53.974)" fill="url(#a)"/><path data-name="Path 16" d="M181.069 221.217a55.825 55.825 0 001.786-12.948s-59.8 16.943-122.586 0a63.6 63.6 0 001.9 14.187c55.712 15.218 98.919 5.518 118.9-1.239z" fill="#fff"/><path data-name="Path 17" d="M51.706 154.472a17.01 17.01 0 01-.037-9.023 19.376 19.376 0 014.68-8.776 15.912 15.912 0 015.164-3.661 17.461 17.461 0 016.546-1.516l.421-.025h.105l.577.021.151.014.6.064 1.192.124a20.882 20.882 0 013.607.924 15.606 15.606 0 015.511 3.665 17.332 17.332 0 014.513 9.159 16.1 16.1 0 01-.757 9.033s-2.3-3.026-5.276-6.3a19.706 19.706 0 00-5.038-4.044 11.352 11.352 0 00-2.491-.9c-.406.031-.26-.062-1.029-.144l-1.2-.072-.6-.037-.151-.01h-.019l.47.021h-.023l-.045.006-.179.027a11.656 11.656 0 00-5.511 1.479 25.879 25.879 0 00-5.41 4.065 162.184 162.184 0 00-5.771 5.906z" transform="translate(22.816 29.722)" fill="url(#a)"/><path data-name="Path 18" d="M113.6 154.472a17.01 17.01 0 00.037-9.023 19.3 19.3 0 00-4.682-8.776 15.881 15.881 0 00-5.162-3.661 17.461 17.461 0 00-6.546-1.516l-.421-.025h-.105l-.577.021-.151.014-.6.064-1.194.124a20.976 20.976 0 00-3.607.924 15.616 15.616 0 00-5.509 3.665 17.332 17.332 0 00-4.513 9.159 16.1 16.1 0 00.757 9.033s2.3-3.026 5.274-6.3a19.778 19.778 0 015.038-4.044 11.4 11.4 0 012.493-.9c.4.031.26-.062 1.029-.144l1.2-.072.6-.037.151-.01h.019l-.47.021h.023l.045.006.179.027a11.656 11.656 0 015.511 1.479 25.878 25.878 0 015.41 4.065 166.293 166.293 0 015.771 5.906z" transform="translate(53.819 29.722)" fill="url(#d)"/></g></g></svg>