<svg xmlns="http://www.w3.org/2000/svg" xmlns:xlink="http://www.w3.org/1999/xlink" width="200" height="200"><defs><linearGradient id="c" x1=".5" y1="1" x2=".5" gradientUnits="objectBoundingBox"><stop offset="0" stop-color="#ffd34a"/><stop offset="1" stop-color="#f1d143"/></linearGradient><linearGradient id="a" x1="5.616" y1="-67.406" x2="5.616" y2="-68.672" gradientUnits="objectBoundingBox"><stop offset="0" stop-color="#9d7d35"/><stop offset=".717" stop-color="#8b6930"/></linearGradient><linearGradient id="d" x1="-38.321" y1="-129.985" x2="-37.321" y2="-129.985" xlink:href="#a"/><linearGradient id="e" x1="-44.367" y1="-82.499" x2="-44.367" y2="-83.764" xlink:href="#a"/><linearGradient id="f" x1="-2.36" y1="-129.985" x2="-1.36" y2="-129.985" xlink:href="#a"/><linearGradient id="g" x1=".5" y1="1" x2=".5" y2="0" xlink:href="#a"/><clipPath id="b"><path d="M0 0h200v200H0z"/></clipPath></defs><g data-name="Aveerage" clip-path="url(#b)"><g data-name="Group 39" transform="translate(-254.582 -218.076)" style="isolation:isolate"><circle data-name="Ellipse 3" cx="92.307" cy="92.307" r="92.307" transform="translate(261.756 225.221)" fill="url(#c)"/><path data-name="Path 19" d="M416.005 370.067A92.344 92.344 0 01263.593 335.3a92.318 92.318 0 10177.775-48.035 92.208 92.208 0 01-25.363 82.802z" opacity=".1"/><path data-name="Path 21" d="M280.063 268.683a34.589 34.589 0 0022.151-10.071 26.353 26.353 0 004.626-5.987 20.009 20.009 0 002.179-4.9c.385-1.245-.157-1.6-1.23-.917-1.017.679-2.469 1.648-4.208 2.812-3.388 2.272-7.675 5.1-12.131 7.662-4.4 2.665-9 5.144-12.587 7.153-3.575 1.99-3.2 4.565 1.2 4.248z" transform="translate(15.728 22.752)" fill="url(#a)"/><path data-name="Path 22" d="M279.678 271.039a21.688 21.688 0 001.172 2.1 16.7 16.7 0 003.46 4.183l.4.362a12 12 0 002.711 2.046c.29.159.576.34.87.522a11.426 11.426 0 003 1.462c.371.11.743.248 1.12.387a11.112 11.112 0 003.249.849 24.73 24.73 0 004.776.381 25.671 25.671 0 009.085-1.971 24.712 24.712 0 006.666-4.15 18.272 18.272 0 004.889-6.236 1.93 1.93 0 00-1.783-2.665 2 2 0 00-.468.056l-6.411 1.607c-1.814.425-3.858.843-5.848 1.214l-1.6.207a28.1 28.1 0 01-4.945.373 25.188 25.188 0 01-5.059-.24l-1.089-.122a10.465 10.465 0 01-1.477-.271c-.495-.11-.986-.218-1.464-.282a13.215 13.215 0 01-1.613-.394l-1.071-.29c-1.164-.267-2.193-.6-3.075-.888l-1.328-.412a34.186 34.186 0 00-2.013-.516 1.908 1.908 0 00-1.9.681 1.938 1.938 0 00-.254 2.007z" transform="translate(19.01 46.143)" fill="url(#d)"/><path data-name="Path 23" d="M351.925 268.683a34.589 34.589 0 01-22.151-10.071 26.412 26.412 0 01-4.626-5.987 20.019 20.019 0 01-2.179-4.9c-.385-1.245.159-1.6 1.232-.917l4.206 2.812c3.388 2.272 7.675 5.1 12.134 7.662 4.394 2.665 9 5.144 12.585 7.153 3.574 1.99 3.202 4.565-1.201 4.248z" transform="translate(65.422 22.752)" fill="url(#e)"/><path data-name="Path 24" d="M356.972 271.039a21.688 21.688 0 01-1.172 2.1 16.691 16.691 0 01-3.46 4.183l-.4.362a11.966 11.966 0 01-2.711 2.046c-.29.159-.576.34-.87.522a11.426 11.426 0 01-3 1.462c-.369.11-.743.248-1.12.387a11.113 11.113 0 01-3.249.849 24.731 24.731 0 01-4.776.381 25.672 25.672 0 01-9.085-1.971 24.744 24.744 0 01-6.666-4.15 18.273 18.273 0 01-4.889-6.236 1.93 1.93 0 011.783-2.665 2 2 0 01.468.056l6.414 1.607c1.812.425 3.856.843 5.846 1.214l1.6.207a28.1 28.1 0 004.945.373 25.191 25.191 0 005.059-.24l1.089-.122a10.5 10.5 0 001.479-.271c.493-.11.984-.218 1.462-.282a13.111 13.111 0 001.613-.394l1.071-.29c1.164-.267 2.193-.6 3.075-.888l1.327-.412a34.186 34.186 0 012.013-.516 1.908 1.908 0 011.9.681 1.937 1.937 0 01.254 2.007z" transform="translate(57.477 46.143)" fill="url(#f)"/><path data-name="Path 25" d="M331.4 297.888h-27.87a4.787 4.787 0 01-4.786-4.786 4.785 4.785 0 014.786-4.784h27.87a4.785 4.785 0 014.786 4.784 4.787 4.787 0 01-4.786 4.786z" transform="translate(39.613 67.572)" fill="url(#g)"/></g></g></svg>